<?xml version="1.0" ?><svg xmlns="http://www.w3.org/2000/svg" xmlns:xlink="http://www.w3.org/1999/xlink" version="1.1" viewBox="0 0 512 512" style="enable-background:new 0 0 512 512;" xml:space="preserve"><g id="_x32_2_x2C__Gauge_x2C__Panel_x2C__Electronics_x2C__Meter_x2C__Gauge_x2C__Electricity_x2C__Technology_x2C__Speedometer"><g><path d="M436.312,75.688c-99.667-99.667-260.97-99.654-360.624,0c-99.667,99.667-99.654,260.97,0,360.624    c99.667,99.667,260.97,99.654,360.624,0C535.979,336.645,535.966,175.342,436.312,75.688z M237.279,490.254l91.492-112.96    C334.057,370.767,329.398,361,321,361h-49.229l8-20c17.16,0,151.124,0,165.95,0c4.1,0,7.785-2.503,9.296-6.314    C510.645,194.38,406.649,42,256,42C131.185,42,31.807,149.167,42.836,274.911c1.871,20.722,6.468,40.404,14.148,59.774    C58.495,338.497,62.18,341,66.28,341c15.377,0,124.347,0,141.95,0l-26.514,66.286C179.089,413.853,183.936,421,191,421h37.026    l-17.276,65.611C102.749,465.458,21,370.104,21,256C21,126.42,126.42,21,256,21s235,105.42,235,235    C491,392.563,374.31,501.105,237.279,490.254z M73.198,321c-4.293-12.032-7.354-24.398-9.182-37H93c5.523,0,10-4.477,10-10    c0-84.364,68.636-153,153-153c84.448,0,153,68.74,153,153c0,5.523,4.477,10,10,10h28.983c-1.827,12.602-4.888,24.968-9.182,37    h-99.449c-4.694-37.452-35.361-66.918-73.353-69.752V171c0-5.523-4.477-10-10-10c-5.523,0-10,4.477-10,10v80.248    c-37.991,2.834-68.659,32.3-73.353,69.752H73.198z M397.429,123.357L373.57,147.21c-28.599-26.537-66.154-43.54-107.57-45.913    V62.255C317.718,64.894,364.144,87.889,397.429,123.357z M246,101.297c-42.454,2.432-80.854,20.236-109.705,47.925l-23.72-23.721    C145.985,88.813,193.243,64.947,246,62.255V101.297z M252,271h8c29.678,0,54.392,21.659,59.167,50H287.77l2.514-6.286    C292.911,308.147,288.064,301,281,301h-50c-4.089,0-7.766,2.49-9.285,6.286L216.23,321h-23.396    C197.608,292.659,222.322,271,252,271z"/></g></g><g id="Layer_1"/></svg>